<svg id="logo_biblia" xmlns="http://www.w3.org/2000/svg" xmlns:xlink="http://www.w3.org/1999/xlink" width="142.508" height="114.192" viewBox="0 0 142.508 114.192">
  <defs>
    <clipPath id="clip-path">
      <rect id="Прямоугольник_95" data-name="Прямоугольник 95" width="142.508" height="114.192" fill="none"/>
    </clipPath>
    <clipPath id="clip-path-2">
      <path id="Контур_16900" data-name="Контур 16900" d="M163.1,0a52.02,52.02,0,0,0-42.5,82.016l15.678-11.391L163.1,51.14l26.82,19.486,15.678,11.391A52.02,52.02,0,0,0,163.1,0Z" transform="translate(-111.079)" fill="none"/>
    </clipPath>
  </defs>
  <g id="Сгруппировать_204" data-name="Сгруппировать 204">
    <g id="Сгруппировать_203" data-name="Сгруппировать 203" clip-path="url(#clip-path)">
      <path id="Контур_16898" data-name="Контур 16898" d="M163.1,0a52.02,52.02,0,0,1,42.5,82.016L189.915,70.625,163.1,51.14l-26.82,19.486L120.6,82.016A52.02,52.02,0,0,1,163.1,0" transform="translate(-91.841 0)" fill="#f17b16" fill-rule="evenodd"/>
    </g>
  </g>
  <g id="Сгруппировать_206" data-name="Сгруппировать 206" transform="translate(19.238)">
    <g id="Сгруппировать_205" data-name="Сгруппировать 205" clip-path="url(#clip-path-2)">
      <path id="Контур_16899" data-name="Контур 16899" d="M161.888,38.5,165.8,59.942l9.117-19.8-1.548,21.741,13.754-16.908L180.213,65.65,197.74,52.694,185.91,71l20.2-8.19L190.1,77.6l21.6-2.91L192.512,85.03l21.646,2.553L193,92.83l20.331,7.856-21.8-.18,17.738,12.665-21.066-5.594,14.031,16.679L183.23,113.6l9.443,19.644-15.765-15.051,4.261,21.375-11.527-18.5-1.189,21.763-6.564-20.784-6.564,20.784-1.189-21.763-11.527,18.5,4.261-21.375L131.1,133.242l9.442-19.644-19.012,10.657,14.031-16.679L114.5,113.171l17.738-12.665-21.795.18,20.331-7.856-21.155-5.246,21.646-2.553L112.079,74.688l21.6,2.91L117.669,62.81l20.2,8.19-11.83-18.306,17.527,12.956-6.906-20.673,13.754,16.908-1.548-21.741,9.117,19.8Z" transform="translate(-109.872 -31.832)" fill="#fff" fill-rule="evenodd"/>
    </g>
  </g>
  <g id="Сгруппировать_208" data-name="Сгруппировать 208">
    <g id="Сгруппировать_207" data-name="Сгруппировать 207" clip-path="url(#clip-path)">
      <path id="Контур_16901" data-name="Контур 16901" d="M304.333,171.313h9.123v14.634h16.915v9.123H313.456v48.844h-9.123V195.07H287.418v-9.123h16.915Z" transform="translate(-237.64 -141.643)" fill="#3d3c3c" fill-rule="evenodd"/>
      <path id="Контур_16902" data-name="Контур 16902" d="M13.588,448.014,0,413.97c28.248,4.4,52.508,13.717,67.5,34.483-13.963-12.5-32.7-21.84-59.907-25.57Z" transform="translate(0 -342.275)" fill="#59648e" fill-rule="evenodd"/>
      <path id="Контур_16903" data-name="Контур 16903" d="M486.987,448.014l13.589-34.044c-28.248,4.4-52.508,13.717-67.5,34.483,13.963-12.5,32.7-21.84,59.907-25.57Z" transform="translate(-358.068 -342.275)" fill="#59648e" fill-rule="evenodd"/>
      <path id="Контур_16904" data-name="Контур 16904" d="M112.075,535.148,101.85,509.531c21.255,3.308,39.51,10.322,50.793,25.947-10.507-9.4-24.6-16.433-45.076-19.24Z" transform="translate(-84.211 -421.285)" fill="#59648e" fill-rule="evenodd"/>
      <path id="Контур_16905" data-name="Контур 16905" d="M468.281,535.148l10.225-25.617c-21.255,3.308-39.51,10.322-50.793,25.947,10.507-9.4,24.6-16.433,45.076-19.24Z" transform="translate(-353.637 -421.285)" fill="#59648e" fill-rule="evenodd"/>
    </g>
  </g>
</svg>
